<?xml version="1.0" encoding="utf-8" standalone="no"?>
<!DOCTYPE svg PUBLIC "-//W3C//DTD SVG 1.1//EN"
  "http://www.w3.org/Graphics/SVG/1.1/DTD/svg11.dtd">
<!-- Created with matplotlib (https://matplotlib.org/) -->
<svg height="288pt" version="1.1" viewBox="0 0 864 288" width="864pt" xmlns="http://www.w3.org/2000/svg" xmlns:xlink="http://www.w3.org/1999/xlink">
 <metadata>
  <rdf:RDF xmlns:cc="http://creativecommons.org/ns#" xmlns:dc="http://purl.org/dc/elements/1.1/" xmlns:rdf="http://www.w3.org/1999/02/22-rdf-syntax-ns#">
   <cc:Work>
    <dc:type rdf:resource="http://purl.org/dc/dcmitype/StillImage"/>
    <dc:date>2021-06-02T21:40:07.063145</dc:date>
    <dc:format>image/svg+xml</dc:format>
    <dc:creator>
     <cc:Agent>
      <dc:title>Matplotlib v3.3.3, https://matplotlib.org/</dc:title>
     </cc:Agent>
    </dc:creator>
   </cc:Work>
  </rdf:RDF>
 </metadata>
 <defs>
  <style type="text/css">*{stroke-linecap:butt;stroke-linejoin:round;}</style>
 </defs>
 <g id="figure_1">
  <g id="patch_1">
   <path d="M 0 288 
L 864 288 
L 864 0 
L 0 0 
z
" style="fill:none;"/>
  </g>
  <g id="axes_1">
   <g id="patch_2">
    <path d="M 57.62 234.52 
L 848.88 234.52 
L 848.88 15.12 
L 57.62 15.12 
z
" style="fill:none;"/>
   </g>
   <g id="matplotlib.axis_1">
    <g id="xtick_1">
     <g id="line2d_1">
      <defs>
       <path d="M 0 0 
L 0 3.5 
" id="m5889a76a6c" style="stroke:#000000;stroke-width:0.8;"/>
      </defs>
      <g>
       <use style="stroke:#000000;stroke-width:0.8;" x="57.62" xlink:href="#m5889a76a6c" y="234.52"/>
      </g>
     </g>
     <g id="text_1">
      <!-- 0 -->
      <g transform="translate(53.16625 252.157813)scale(0.14 -0.14)">
       <defs>
        <path d="M 31.78125 66.40625 
Q 24.171875 66.40625 20.328125 58.90625 
Q 16.5 51.421875 16.5 36.375 
Q 16.5 21.390625 20.328125 13.890625 
Q 24.171875 6.390625 31.78125 6.390625 
Q 39.453125 6.390625 43.28125 13.890625 
Q 47.125 21.390625 47.125 36.375 
Q 47.125 51.421875 43.28125 58.90625 
Q 39.453125 66.40625 31.78125 66.40625 
z
M 31.78125 74.21875 
Q 44.046875 74.21875 50.515625 64.515625 
Q 56.984375 54.828125 56.984375 36.375 
Q 56.984375 17.96875 50.515625 8.265625 
Q 44.046875 -1.421875 31.78125 -1.421875 
Q 19.53125 -1.421875 13.0625 8.265625 
Q 6.59375 17.96875 6.59375 36.375 
Q 6.59375 54.828125 13.0625 64.515625 
Q 19.53125 74.21875 31.78125 74.21875 
z
" id="DejaVuSans-48"/>
       </defs>
       <use xlink:href="#DejaVuSans-48"/>
      </g>
     </g>
    </g>
    <g id="xtick_2">
     <g id="line2d_2">
      <g>
       <use style="stroke:#000000;stroke-width:0.8;" x="182.924647" xlink:href="#m5889a76a6c" y="234.52"/>
      </g>
     </g>
     <g id="text_2">
      <!-- 100 -->
      <g transform="translate(169.563397 252.157813)scale(0.14 -0.14)">
       <defs>
        <path d="M 12.40625 8.296875 
L 28.515625 8.296875 
L 28.515625 63.921875 
L 10.984375 60.40625 
L 10.984375 69.390625 
L 28.421875 72.90625 
L 38.28125 72.90625 
L 38.28125 8.296875 
L 54.390625 8.296875 
L 54.390625 0 
L 12.40625 0 
z
" id="DejaVuSans-49"/>
       </defs>
       <use xlink:href="#DejaVuSans-49"/>
       <use x="63.623047" xlink:href="#DejaVuSans-48"/>
       <use x="127.246094" xlink:href="#DejaVuSans-48"/>
      </g>
     </g>
    </g>
    <g id="xtick_3">
     <g id="line2d_3">
      <g>
       <use style="stroke:#000000;stroke-width:0.8;" x="308.229294" xlink:href="#m5889a76a6c" y="234.52"/>
      </g>
     </g>
     <g id="text_3">
      <!-- 200 -->
      <g transform="translate(294.868044 252.157813)scale(0.14 -0.14)">
       <defs>
        <path d="M 19.1875 8.296875 
L 53.609375 8.296875 
L 53.609375 0 
L 7.328125 0 
L 7.328125 8.296875 
Q 12.9375 14.109375 22.625 23.890625 
Q 32.328125 33.6875 34.8125 36.53125 
Q 39.546875 41.84375 41.421875 45.53125 
Q 43.3125 49.21875 43.3125 52.78125 
Q 43.3125 58.59375 39.234375 62.25 
Q 35.15625 65.921875 28.609375 65.921875 
Q 23.96875 65.921875 18.8125 64.3125 
Q 13.671875 62.703125 7.8125 59.421875 
L 7.8125 69.390625 
Q 13.765625 71.78125 18.9375 73 
Q 24.125 74.21875 28.421875 74.21875 
Q 39.75 74.21875 46.484375 68.546875 
Q 53.21875 62.890625 53.21875 53.421875 
Q 53.21875 48.921875 51.53125 44.890625 
Q 49.859375 40.875 45.40625 35.40625 
Q 44.1875 33.984375 37.640625 27.21875 
Q 31.109375 20.453125 19.1875 8.296875 
z
" id="DejaVuSans-50"/>
       </defs>
       <use xlink:href="#DejaVuSans-50"/>
       <use x="63.623047" xlink:href="#DejaVuSans-48"/>
       <use x="127.246094" xlink:href="#DejaVuSans-48"/>
      </g>
     </g>
    </g>
    <g id="xtick_4">
     <g id="line2d_4">
      <g>
       <use style="stroke:#000000;stroke-width:0.8;" x="433.53394" xlink:href="#m5889a76a6c" y="234.52"/>
      </g>
     </g>
     <g id="text_4">
      <!-- 300 -->
      <g transform="translate(420.17269 252.157813)scale(0.14 -0.14)">
       <defs>
        <path d="M 40.578125 39.3125 
Q 47.65625 37.796875 51.625 33 
Q 55.609375 28.21875 55.609375 21.1875 
Q 55.609375 10.40625 48.1875 4.484375 
Q 40.765625 -1.421875 27.09375 -1.421875 
Q 22.515625 -1.421875 17.65625 -0.515625 
Q 12.796875 0.390625 7.625 2.203125 
L 7.625 11.71875 
Q 11.71875 9.328125 16.59375 8.109375 
Q 21.484375 6.890625 26.8125 6.890625 
Q 36.078125 6.890625 40.9375 10.546875 
Q 45.796875 14.203125 45.796875 21.1875 
Q 45.796875 27.640625 41.28125 31.265625 
Q 36.765625 34.90625 28.71875 34.90625 
L 20.21875 34.90625 
L 20.21875 43.015625 
L 29.109375 43.015625 
Q 36.375 43.015625 40.234375 45.921875 
Q 44.09375 48.828125 44.09375 54.296875 
Q 44.09375 59.90625 40.109375 62.90625 
Q 36.140625 65.921875 28.71875 65.921875 
Q 24.65625 65.921875 20.015625 65.03125 
Q 15.375 64.15625 9.8125 62.3125 
L 9.8125 71.09375 
Q 15.4375 72.65625 20.34375 73.4375 
Q 25.25 74.21875 29.59375 74.21875 
Q 40.828125 74.21875 47.359375 69.109375 
Q 53.90625 64.015625 53.90625 55.328125 
Q 53.90625 49.265625 50.4375 45.09375 
Q 46.96875 40.921875 40.578125 39.3125 
z
" id="DejaVuSans-51"/>
       </defs>
       <use xlink:href="#DejaVuSans-51"/>
       <use x="63.623047" xlink:href="#DejaVuSans-48"/>
       <use x="127.246094" xlink:href="#DejaVuSans-48"/>
      </g>
     </g>
    </g>
    <g id="xtick_5">
     <g id="line2d_5">
      <g>
       <use style="stroke:#000000;stroke-width:0.8;" x="558.838587" xlink:href="#m5889a76a6c" y="234.52"/>
      </g>
     </g>
     <g id="text_5">
      <!-- 400 -->
      <g transform="translate(545.477337 252.157813)scale(0.14 -0.14)">
       <defs>
        <path d="M 37.796875 64.3125 
L 12.890625 25.390625 
L 37.796875 25.390625 
z
M 35.203125 72.90625 
L 47.609375 72.90625 
L 47.609375 25.390625 
L 58.015625 25.390625 
L 58.015625 17.1875 
L 47.609375 17.1875 
L 47.609375 0 
L 37.796875 0 
L 37.796875 17.1875 
L 4.890625 17.1875 
L 4.890625 26.703125 
z
" id="DejaVuSans-52"/>
       </defs>
       <use xlink:href="#DejaVuSans-52"/>
       <use x="63.623047" xlink:href="#DejaVuSans-48"/>
       <use x="127.246094" xlink:href="#DejaVuSans-48"/>
      </g>
     </g>
    </g>
    <g id="xtick_6">
     <g id="line2d_6">
      <g>
       <use style="stroke:#000000;stroke-width:0.8;" x="684.143234" xlink:href="#m5889a76a6c" y="234.52"/>
      </g>
     </g>
     <g id="text_6">
      <!-- 500 -->
      <g transform="translate(670.781984 252.157813)scale(0.14 -0.14)">
       <defs>
        <path d="M 10.796875 72.90625 
L 49.515625 72.90625 
L 49.515625 64.59375 
L 19.828125 64.59375 
L 19.828125 46.734375 
Q 21.96875 47.46875 24.109375 47.828125 
Q 26.265625 48.1875 28.421875 48.1875 
Q 40.625 48.1875 47.75 41.5 
Q 54.890625 34.8125 54.890625 23.390625 
Q 54.890625 11.625 47.5625 5.09375 
Q 40.234375 -1.421875 26.90625 -1.421875 
Q 22.3125 -1.421875 17.546875 -0.640625 
Q 12.796875 0.140625 7.71875 1.703125 
L 7.71875 11.625 
Q 12.109375 9.234375 16.796875 8.0625 
Q 21.484375 6.890625 26.703125 6.890625 
Q 35.15625 6.890625 40.078125 11.328125 
Q 45.015625 15.765625 45.015625 23.390625 
Q 45.015625 31 40.078125 35.4375 
Q 35.15625 39.890625 26.703125 39.890625 
Q 22.75 39.890625 18.8125 39.015625 
Q 14.890625 38.140625 10.796875 36.28125 
z
" id="DejaVuSans-53"/>
       </defs>
       <use xlink:href="#DejaVuSans-53"/>
       <use x="63.623047" xlink:href="#DejaVuSans-48"/>
       <use x="127.246094" xlink:href="#DejaVuSans-48"/>
      </g>
     </g>
    </g>
    <g id="xtick_7">
     <g id="line2d_7">
      <g>
       <use style="stroke:#000000;stroke-width:0.8;" x="809.447881" xlink:href="#m5889a76a6c" y="234.52"/>
      </g>
     </g>
     <g id="text_7">
      <!-- 600 -->
      <g transform="translate(796.086631 252.157813)scale(0.14 -0.14)">
       <defs>
        <path d="M 33.015625 40.375 
Q 26.375 40.375 22.484375 35.828125 
Q 18.609375 31.296875 18.609375 23.390625 
Q 18.609375 15.53125 22.484375 10.953125 
Q 26.375 6.390625 33.015625 6.390625 
Q 39.65625 6.390625 43.53125 10.953125 
Q 47.40625 15.53125 47.40625 23.390625 
Q 47.40625 31.296875 43.53125 35.828125 
Q 39.65625 40.375 33.015625 40.375 
z
M 52.59375 71.296875 
L 52.59375 62.3125 
Q 48.875 64.0625 45.09375 64.984375 
Q 41.3125 65.921875 37.59375 65.921875 
Q 27.828125 65.921875 22.671875 59.328125 
Q 17.53125 52.734375 16.796875 39.40625 
Q 19.671875 43.65625 24.015625 45.921875 
Q 28.375 48.1875 33.59375 48.1875 
Q 44.578125 48.1875 50.953125 41.515625 
Q 57.328125 34.859375 57.328125 23.390625 
Q 57.328125 12.15625 50.6875 5.359375 
Q 44.046875 -1.421875 33.015625 -1.421875 
Q 20.359375 -1.421875 13.671875 8.265625 
Q 6.984375 17.96875 6.984375 36.375 
Q 6.984375 53.65625 15.1875 63.9375 
Q 23.390625 74.21875 37.203125 74.21875 
Q 40.921875 74.21875 44.703125 73.484375 
Q 48.484375 72.75 52.59375 71.296875 
z
" id="DejaVuSans-54"/>
       </defs>
       <use xlink:href="#DejaVuSans-54"/>
       <use x="63.623047" xlink:href="#DejaVuSans-48"/>
       <use x="127.246094" xlink:href="#DejaVuSans-48"/>
      </g>
     </g>
    </g>
    <g id="text_8">
     <!-- t (sec) -->
     <g transform="translate(431.01625 269.707188)scale(0.14 -0.14)">
      <defs>
       <path d="M 18.3125 70.21875 
L 18.3125 54.6875 
L 36.8125 54.6875 
L 36.8125 47.703125 
L 18.3125 47.703125 
L 18.3125 18.015625 
Q 18.3125 11.328125 20.140625 9.421875 
Q 21.96875 7.515625 27.59375 7.515625 
L 36.8125 7.515625 
L 36.8125 0 
L 27.59375 0 
Q 17.1875 0 13.234375 3.875 
Q 9.28125 7.765625 9.28125 18.015625 
L 9.28125 47.703125 
L 2.6875 47.703125 
L 2.6875 54.6875 
L 9.28125 54.6875 
L 9.28125 70.21875 
z
" id="DejaVuSans-116"/>
       <path id="DejaVuSans-32"/>
       <path d="M 31 75.875 
Q 24.46875 64.65625 21.28125 53.65625 
Q 18.109375 42.671875 18.109375 31.390625 
Q 18.109375 20.125 21.3125 9.0625 
Q 24.515625 -2 31 -13.1875 
L 23.1875 -13.1875 
Q 15.875 -1.703125 12.234375 9.375 
Q 8.59375 20.453125 8.59375 31.390625 
Q 8.59375 42.28125 12.203125 53.3125 
Q 15.828125 64.359375 23.1875 75.875 
z
" id="DejaVuSans-40"/>
       <path d="M 44.28125 53.078125 
L 44.28125 44.578125 
Q 40.484375 46.53125 36.375 47.5 
Q 32.28125 48.484375 27.875 48.484375 
Q 21.1875 48.484375 17.84375 46.4375 
Q 14.5 44.390625 14.5 40.28125 
Q 14.5 37.15625 16.890625 35.375 
Q 19.28125 33.59375 26.515625 31.984375 
L 29.59375 31.296875 
Q 39.15625 29.25 43.1875 25.515625 
Q 47.21875 21.78125 47.21875 15.09375 
Q 47.21875 7.46875 41.1875 3.015625 
Q 35.15625 -1.421875 24.609375 -1.421875 
Q 20.21875 -1.421875 15.453125 -0.5625 
Q 10.6875 0.296875 5.421875 2 
L 5.421875 11.28125 
Q 10.40625 8.6875 15.234375 7.390625 
Q 20.0625 6.109375 24.8125 6.109375 
Q 31.15625 6.109375 34.5625 8.28125 
Q 37.984375 10.453125 37.984375 14.40625 
Q 37.984375 18.0625 35.515625 20.015625 
Q 33.0625 21.96875 24.703125 23.78125 
L 21.578125 24.515625 
Q 13.234375 26.265625 9.515625 29.90625 
Q 5.8125 33.546875 5.8125 39.890625 
Q 5.8125 47.609375 11.28125 51.796875 
Q 16.75 56 26.8125 56 
Q 31.78125 56 36.171875 55.265625 
Q 40.578125 54.546875 44.28125 53.078125 
z
" id="DejaVuSans-115"/>
       <path d="M 56.203125 29.59375 
L 56.203125 25.203125 
L 14.890625 25.203125 
Q 15.484375 15.921875 20.484375 11.0625 
Q 25.484375 6.203125 34.421875 6.203125 
Q 39.59375 6.203125 44.453125 7.46875 
Q 49.3125 8.734375 54.109375 11.28125 
L 54.109375 2.78125 
Q 49.265625 0.734375 44.1875 -0.34375 
Q 39.109375 -1.421875 33.890625 -1.421875 
Q 20.796875 -1.421875 13.15625 6.1875 
Q 5.515625 13.8125 5.515625 26.8125 
Q 5.515625 40.234375 12.765625 48.109375 
Q 20.015625 56 32.328125 56 
Q 43.359375 56 49.78125 48.890625 
Q 56.203125 41.796875 56.203125 29.59375 
z
M 47.21875 32.234375 
Q 47.125 39.59375 43.09375 43.984375 
Q 39.0625 48.390625 32.421875 48.390625 
Q 24.90625 48.390625 20.390625 44.140625 
Q 15.875 39.890625 15.1875 32.171875 
z
" id="DejaVuSans-101"/>
       <path d="M 48.78125 52.59375 
L 48.78125 44.1875 
Q 44.96875 46.296875 41.140625 47.34375 
Q 37.3125 48.390625 33.40625 48.390625 
Q 24.65625 48.390625 19.8125 42.84375 
Q 14.984375 37.3125 14.984375 27.296875 
Q 14.984375 17.28125 19.8125 11.734375 
Q 24.65625 6.203125 33.40625 6.203125 
Q 37.3125 6.203125 41.140625 7.25 
Q 44.96875 8.296875 48.78125 10.40625 
L 48.78125 2.09375 
Q 45.015625 0.34375 40.984375 -0.53125 
Q 36.96875 -1.421875 32.421875 -1.421875 
Q 20.0625 -1.421875 12.78125 6.34375 
Q 5.515625 14.109375 5.515625 27.296875 
Q 5.515625 40.671875 12.859375 48.328125 
Q 20.21875 56 33.015625 56 
Q 37.15625 56 41.109375 55.140625 
Q 45.0625 54.296875 48.78125 52.59375 
z
" id="DejaVuSans-99"/>
       <path d="M 8.015625 75.875 
L 15.828125 75.875 
Q 23.140625 64.359375 26.78125 53.3125 
Q 30.421875 42.28125 30.421875 31.390625 
Q 30.421875 20.453125 26.78125 9.375 
Q 23.140625 -1.703125 15.828125 -13.1875 
L 8.015625 -13.1875 
Q 14.5 -2 17.703125 9.0625 
Q 20.90625 20.125 20.90625 31.390625 
Q 20.90625 42.671875 17.703125 53.65625 
Q 14.5 64.65625 8.015625 75.875 
z
" id="DejaVuSans-41"/>
      </defs>
      <use xlink:href="#DejaVuSans-116"/>
      <use x="39.208984" xlink:href="#DejaVuSans-32"/>
      <use x="70.996094" xlink:href="#DejaVuSans-40"/>
      <use x="110.009766" xlink:href="#DejaVuSans-115"/>
      <use x="162.109375" xlink:href="#DejaVuSans-101"/>
      <use x="223.632812" xlink:href="#DejaVuSans-99"/>
      <use x="278.613281" xlink:href="#DejaVuSans-41"/>
     </g>
    </g>
   </g>
   <g id="matplotlib.axis_2">
    <g id="ytick_1">
     <g id="line2d_8">
      <defs>
       <path d="M 0 0 
L -3.5 0 
" id="m527c3661cf" style="stroke:#000000;stroke-width:0.8;"/>
      </defs>
      <g>
       <use style="stroke:#000000;stroke-width:0.8;" x="57.62" xlink:href="#m527c3661cf" y="214.574545"/>
      </g>
     </g>
     <g id="text_9">
      <!-- 01 -->
      <g transform="translate(32.805 219.893452)scale(0.14 -0.14)">
       <use xlink:href="#DejaVuSans-48"/>
       <use x="63.623047" xlink:href="#DejaVuSans-49"/>
      </g>
     </g>
    </g>
    <g id="ytick_2">
     <g id="line2d_9">
      <g>
       <use style="stroke:#000000;stroke-width:0.8;" x="57.62" xlink:href="#m527c3661cf" y="194.629091"/>
      </g>
     </g>
     <g id="text_10">
      <!-- 02 -->
      <g transform="translate(32.805 199.947997)scale(0.14 -0.14)">
       <use xlink:href="#DejaVuSans-48"/>
       <use x="63.623047" xlink:href="#DejaVuSans-50"/>
      </g>
     </g>
    </g>
    <g id="ytick_3">
     <g id="line2d_10">
      <g>
       <use style="stroke:#000000;stroke-width:0.8;" x="57.62" xlink:href="#m527c3661cf" y="174.683636"/>
      </g>
     </g>
     <g id="text_11">
      <!-- 03 -->
      <g transform="translate(32.805 180.002543)scale(0.14 -0.14)">
       <use xlink:href="#DejaVuSans-48"/>
       <use x="63.623047" xlink:href="#DejaVuSans-51"/>
      </g>
     </g>
    </g>
    <g id="ytick_4">
     <g id="line2d_11">
      <g>
       <use style="stroke:#000000;stroke-width:0.8;" x="57.62" xlink:href="#m527c3661cf" y="154.738182"/>
      </g>
     </g>
     <g id="text_12">
      <!-- 04 -->
      <g transform="translate(32.805 160.057088)scale(0.14 -0.14)">
       <use xlink:href="#DejaVuSans-48"/>
       <use x="63.623047" xlink:href="#DejaVuSans-52"/>
      </g>
     </g>
    </g>
    <g id="ytick_5">
     <g id="line2d_12">
      <g>
       <use style="stroke:#000000;stroke-width:0.8;" x="57.62" xlink:href="#m527c3661cf" y="134.792727"/>
      </g>
     </g>
     <g id="text_13">
      <!-- 05 -->
      <g transform="translate(32.805 140.111634)scale(0.14 -0.14)">
       <use xlink:href="#DejaVuSans-48"/>
       <use x="63.623047" xlink:href="#DejaVuSans-53"/>
      </g>
     </g>
    </g>
    <g id="ytick_6">
     <g id="line2d_13">
      <g>
       <use style="stroke:#000000;stroke-width:0.8;" x="57.62" xlink:href="#m527c3661cf" y="114.847273"/>
      </g>
     </g>
     <g id="text_14">
      <!-- 06 -->
      <g transform="translate(32.805 120.166179)scale(0.14 -0.14)">
       <use xlink:href="#DejaVuSans-48"/>
       <use x="63.623047" xlink:href="#DejaVuSans-54"/>
      </g>
     </g>
    </g>
    <g id="ytick_7">
     <g id="line2d_14">
      <g>
       <use style="stroke:#000000;stroke-width:0.8;" x="57.62" xlink:href="#m527c3661cf" y="94.901818"/>
      </g>
     </g>
     <g id="text_15">
      <!-- 07 -->
      <g transform="translate(32.805 100.220724)scale(0.14 -0.14)">
       <defs>
        <path d="M 8.203125 72.90625 
L 55.078125 72.90625 
L 55.078125 68.703125 
L 28.609375 0 
L 18.3125 0 
L 43.21875 64.59375 
L 8.203125 64.59375 
z
" id="DejaVuSans-55"/>
       </defs>
       <use xlink:href="#DejaVuSans-48"/>
       <use x="63.623047" xlink:href="#DejaVuSans-55"/>
      </g>
     </g>
    </g>
    <g id="ytick_8">
     <g id="line2d_15">
      <g>
       <use style="stroke:#000000;stroke-width:0.8;" x="57.62" xlink:href="#m527c3661cf" y="74.956364"/>
      </g>
     </g>
     <g id="text_16">
      <!-- 08 -->
      <g transform="translate(32.805 80.27527)scale(0.14 -0.14)">
       <defs>
        <path d="M 31.78125 34.625 
Q 24.75 34.625 20.71875 30.859375 
Q 16.703125 27.09375 16.703125 20.515625 
Q 16.703125 13.921875 20.71875 10.15625 
Q 24.75 6.390625 31.78125 6.390625 
Q 38.8125 6.390625 42.859375 10.171875 
Q 46.921875 13.96875 46.921875 20.515625 
Q 46.921875 27.09375 42.890625 30.859375 
Q 38.875 34.625 31.78125 34.625 
z
M 21.921875 38.8125 
Q 15.578125 40.375 12.03125 44.71875 
Q 8.5 49.078125 8.5 55.328125 
Q 8.5 64.0625 14.71875 69.140625 
Q 20.953125 74.21875 31.78125 74.21875 
Q 42.671875 74.21875 48.875 69.140625 
Q 55.078125 64.0625 55.078125 55.328125 
Q 55.078125 49.078125 51.53125 44.71875 
Q 48 40.375 41.703125 38.8125 
Q 48.828125 37.15625 52.796875 32.3125 
Q 56.78125 27.484375 56.78125 20.515625 
Q 56.78125 9.90625 50.3125 4.234375 
Q 43.84375 -1.421875 31.78125 -1.421875 
Q 19.734375 -1.421875 13.25 4.234375 
Q 6.78125 9.90625 6.78125 20.515625 
Q 6.78125 27.484375 10.78125 32.3125 
Q 14.796875 37.15625 21.921875 38.8125 
z
M 18.3125 54.390625 
Q 18.3125 48.734375 21.84375 45.5625 
Q 25.390625 42.390625 31.78125 42.390625 
Q 38.140625 42.390625 41.71875 45.5625 
Q 45.3125 48.734375 45.3125 54.390625 
Q 45.3125 60.0625 41.71875 63.234375 
Q 38.140625 66.40625 31.78125 66.40625 
Q 25.390625 66.40625 21.84375 63.234375 
Q 18.3125 60.0625 18.3125 54.390625 
z
" id="DejaVuSans-56"/>
       </defs>
       <use xlink:href="#DejaVuSans-48"/>
       <use x="63.623047" xlink:href="#DejaVuSans-56"/>
      </g>
     </g>
    </g>
    <g id="ytick_9">
     <g id="line2d_16">
      <g>
       <use style="stroke:#000000;stroke-width:0.8;" x="57.62" xlink:href="#m527c3661cf" y="55.010909"/>
      </g>
     </g>
     <g id="text_17">
      <!-- 09 -->
      <g transform="translate(32.805 60.329815)scale(0.14 -0.14)">
       <defs>
        <path d="M 10.984375 1.515625 
L 10.984375 10.5 
Q 14.703125 8.734375 18.5 7.8125 
Q 22.3125 6.890625 25.984375 6.890625 
Q 35.75 6.890625 40.890625 13.453125 
Q 46.046875 20.015625 46.78125 33.40625 
Q 43.953125 29.203125 39.59375 26.953125 
Q 35.25 24.703125 29.984375 24.703125 
Q 19.046875 24.703125 12.671875 31.3125 
Q 6.296875 37.9375 6.296875 49.421875 
Q 6.296875 60.640625 12.9375 67.421875 
Q 19.578125 74.21875 30.609375 74.21875 
Q 43.265625 74.21875 49.921875 64.515625 
Q 56.59375 54.828125 56.59375 36.375 
Q 56.59375 19.140625 48.40625 8.859375 
Q 40.234375 -1.421875 26.421875 -1.421875 
Q 22.703125 -1.421875 18.890625 -0.6875 
Q 15.09375 0.046875 10.984375 1.515625 
z
M 30.609375 32.421875 
Q 37.25 32.421875 41.125 36.953125 
Q 45.015625 41.5 45.015625 49.421875 
Q 45.015625 57.28125 41.125 61.84375 
Q 37.25 66.40625 30.609375 66.40625 
Q 23.96875 66.40625 20.09375 61.84375 
Q 16.21875 57.28125 16.21875 49.421875 
Q 16.21875 41.5 20.09375 36.953125 
Q 23.96875 32.421875 30.609375 32.421875 
z
" id="DejaVuSans-57"/>
       </defs>
       <use xlink:href="#DejaVuSans-48"/>
       <use x="63.623047" xlink:href="#DejaVuSans-57"/>
      </g>
     </g>
    </g>
    <g id="ytick_10">
     <g id="line2d_17">
      <g>
       <use style="stroke:#000000;stroke-width:0.8;" x="57.62" xlink:href="#m527c3661cf" y="35.065455"/>
      </g>
     </g>
     <g id="text_18">
      <!-- 10 -->
      <g transform="translate(32.805 40.384361)scale(0.14 -0.14)">
       <use xlink:href="#DejaVuSans-49"/>
       <use x="63.623047" xlink:href="#DejaVuSans-48"/>
      </g>
     </g>
    </g>
    <g id="text_19">
     <!-- Participant -->
     <g transform="translate(25.893437 162.289688)rotate(-90)scale(0.14 -0.14)">
      <defs>
       <path d="M 19.671875 64.796875 
L 19.671875 37.40625 
L 32.078125 37.40625 
Q 38.96875 37.40625 42.71875 40.96875 
Q 46.484375 44.53125 46.484375 51.125 
Q 46.484375 57.671875 42.71875 61.234375 
Q 38.96875 64.796875 32.078125 64.796875 
z
M 9.8125 72.90625 
L 32.078125 72.90625 
Q 44.34375 72.90625 50.609375 67.359375 
Q 56.890625 61.8125 56.890625 51.125 
Q 56.890625 40.328125 50.609375 34.8125 
Q 44.34375 29.296875 32.078125 29.296875 
L 19.671875 29.296875 
L 19.671875 0 
L 9.8125 0 
z
" id="DejaVuSans-80"/>
       <path d="M 34.28125 27.484375 
Q 23.390625 27.484375 19.1875 25 
Q 14.984375 22.515625 14.984375 16.5 
Q 14.984375 11.71875 18.140625 8.90625 
Q 21.296875 6.109375 26.703125 6.109375 
Q 34.1875 6.109375 38.703125 11.40625 
Q 43.21875 16.703125 43.21875 25.484375 
L 43.21875 27.484375 
z
M 52.203125 31.203125 
L 52.203125 0 
L 43.21875 0 
L 43.21875 8.296875 
Q 40.140625 3.328125 35.546875 0.953125 
Q 30.953125 -1.421875 24.3125 -1.421875 
Q 15.921875 -1.421875 10.953125 3.296875 
Q 6 8.015625 6 15.921875 
Q 6 25.140625 12.171875 29.828125 
Q 18.359375 34.515625 30.609375 34.515625 
L 43.21875 34.515625 
L 43.21875 35.40625 
Q 43.21875 41.609375 39.140625 45 
Q 35.0625 48.390625 27.6875 48.390625 
Q 23 48.390625 18.546875 47.265625 
Q 14.109375 46.140625 10.015625 43.890625 
L 10.015625 52.203125 
Q 14.9375 54.109375 19.578125 55.046875 
Q 24.21875 56 28.609375 56 
Q 40.484375 56 46.34375 49.84375 
Q 52.203125 43.703125 52.203125 31.203125 
z
" id="DejaVuSans-97"/>
       <path d="M 41.109375 46.296875 
Q 39.59375 47.171875 37.8125 47.578125 
Q 36.03125 48 33.890625 48 
Q 26.265625 48 22.1875 43.046875 
Q 18.109375 38.09375 18.109375 28.8125 
L 18.109375 0 
L 9.078125 0 
L 9.078125 54.6875 
L 18.109375 54.6875 
L 18.109375 46.1875 
Q 20.953125 51.171875 25.484375 53.578125 
Q 30.03125 56 36.53125 56 
Q 37.453125 56 38.578125 55.875 
Q 39.703125 55.765625 41.0625 55.515625 
z
" id="DejaVuSans-114"/>
       <path d="M 9.421875 54.6875 
L 18.40625 54.6875 
L 18.40625 0 
L 9.421875 0 
z
M 9.421875 75.984375 
L 18.40625 75.984375 
L 18.40625 64.59375 
L 9.421875 64.59375 
z
" id="DejaVuSans-105"/>
       <path d="M 18.109375 8.203125 
L 18.109375 -20.796875 
L 9.078125 -20.796875 
L 9.078125 54.6875 
L 18.109375 54.6875 
L 18.109375 46.390625 
Q 20.953125 51.265625 25.265625 53.625 
Q 29.59375 56 35.59375 56 
Q 45.5625 56 51.78125 48.09375 
Q 58.015625 40.1875 58.015625 27.296875 
Q 58.015625 14.40625 51.78125 6.484375 
Q 45.5625 -1.421875 35.59375 -1.421875 
Q 29.59375 -1.421875 25.265625 0.953125 
Q 20.953125 3.328125 18.109375 8.203125 
z
M 48.6875 27.296875 
Q 48.6875 37.203125 44.609375 42.84375 
Q 40.53125 48.484375 33.40625 48.484375 
Q 26.265625 48.484375 22.1875 42.84375 
Q 18.109375 37.203125 18.109375 27.296875 
Q 18.109375 17.390625 22.1875 11.75 
Q 26.265625 6.109375 33.40625 6.109375 
Q 40.53125 6.109375 44.609375 11.75 
Q 48.6875 17.390625 48.6875 27.296875 
z
" id="DejaVuSans-112"/>
       <path d="M 54.890625 33.015625 
L 54.890625 0 
L 45.90625 0 
L 45.90625 32.71875 
Q 45.90625 40.484375 42.875 44.328125 
Q 39.84375 48.1875 33.796875 48.1875 
Q 26.515625 48.1875 22.3125 43.546875 
Q 18.109375 38.921875 18.109375 30.90625 
L 18.109375 0 
L 9.078125 0 
L 9.078125 54.6875 
L 18.109375 54.6875 
L 18.109375 46.1875 
Q 21.34375 51.125 25.703125 53.5625 
Q 30.078125 56 35.796875 56 
Q 45.21875 56 50.046875 50.171875 
Q 54.890625 44.34375 54.890625 33.015625 
z
" id="DejaVuSans-110"/>
      </defs>
      <use xlink:href="#DejaVuSans-80"/>
      <use x="55.802734" xlink:href="#DejaVuSans-97"/>
      <use x="117.082031" xlink:href="#DejaVuSans-114"/>
      <use x="158.195312" xlink:href="#DejaVuSans-116"/>
      <use x="197.404297" xlink:href="#DejaVuSans-105"/>
      <use x="225.1875" xlink:href="#DejaVuSans-99"/>
      <use x="280.167969" xlink:href="#DejaVuSans-105"/>
      <use x="307.951172" xlink:href="#DejaVuSans-112"/>
      <use x="371.427734" xlink:href="#DejaVuSans-97"/>
      <use x="432.707031" xlink:href="#DejaVuSans-110"/>
      <use x="496.085938" xlink:href="#DejaVuSans-116"/>
     </g>
    </g>
   </g>
   <g id="LineCollection_1">
    <path clip-path="url(#p70d0fbac55)" d="M 60.419306 214.574545 
L 61.233786 214.574545 
" style="fill:none;stroke:#00688b;stroke-width:10;"/>
    <path clip-path="url(#p70d0fbac55)" d="M 473.674031 214.574545 
L 476.819178 214.574545 
" style="fill:none;stroke:#00688b;stroke-width:10;"/>
   </g>
   <g id="LineCollection_2">
    <path clip-path="url(#p70d0fbac55)" d="M 385.881836 194.629091 
L 391.858868 194.629091 
" style="fill:none;stroke:#00688b;stroke-width:10;"/>
    <path clip-path="url(#p70d0fbac55)" d="M 393.650724 194.629091 
L 395.893678 194.629091 
" style="fill:none;stroke:#00688b;stroke-width:10;"/>
    <path clip-path="url(#p70d0fbac55)" d="M 626.376539 194.629091 
L 629.045528 194.629091 
" style="fill:none;stroke:#00688b;stroke-width:10;"/>
   </g>
   <g id="LineCollection_3">
    <path clip-path="url(#p70d0fbac55)" d="M 60.419306 174.683636 
L 61.233786 174.683636 
" style="fill:none;stroke:#00688b;stroke-width:10;"/>
    <path clip-path="url(#p70d0fbac55)" d="M 90.565098 174.683636 
L 92.682746 174.683636 
" style="fill:none;stroke:#00688b;stroke-width:10;"/>
    <path clip-path="url(#p70d0fbac55)" d="M 96.32034 174.683636 
L 98.848988 174.683636 
" style="fill:none;stroke:#00688b;stroke-width:10;"/>
    <path clip-path="url(#p70d0fbac55)" d="M 124.807099 174.683636 
L 125.571457 174.683636 
" style="fill:none;stroke:#00688b;stroke-width:10;"/>
    <path clip-path="url(#p70d0fbac55)" d="M 296.611047 174.683636 
L 298.703634 174.683636 
" style="fill:none;stroke:#00688b;stroke-width:10;"/>
    <path clip-path="url(#p70d0fbac55)" d="M 336.308812 174.683636 
L 338.145778 174.683636 
" style="fill:none;stroke:#00688b;stroke-width:10;"/>
    <path clip-path="url(#p70d0fbac55)" d="M 340.535338 174.683636 
L 340.948843 174.683636 
" style="fill:none;stroke:#00688b;stroke-width:10;"/>
    <path clip-path="url(#p70d0fbac55)" d="M 342.76576 174.683636 
L 350.522118 174.683636 
" style="fill:none;stroke:#00688b;stroke-width:10;"/>
    <path clip-path="url(#p70d0fbac55)" d="M 353.174817 174.683636 
L 361.996264 174.683636 
" style="fill:none;stroke:#00688b;stroke-width:10;"/>
    <path clip-path="url(#p70d0fbac55)" d="M 366.168909 174.683636 
L 367.388123 174.683636 
" style="fill:none;stroke:#00688b;stroke-width:10;"/>
    <path clip-path="url(#p70d0fbac55)" d="M 396.242024 174.683636 
L 397.077806 174.683636 
" style="fill:none;stroke:#00688b;stroke-width:10;"/>
    <path clip-path="url(#p70d0fbac55)" d="M 397.480034 174.683636 
L 398.695489 174.683636 
" style="fill:none;stroke:#00688b;stroke-width:10;"/>
    <path clip-path="url(#p70d0fbac55)" d="M 404.133711 174.683636 
L 404.822887 174.683636 
" style="fill:none;stroke:#00688b;stroke-width:10;"/>
    <path clip-path="url(#p70d0fbac55)" d="M 406.777639 174.683636 
L 409.634585 174.683636 
" style="fill:none;stroke:#00688b;stroke-width:10;"/>
    <path clip-path="url(#p70d0fbac55)" d="M 415.580291 174.683636 
L 417.046355 174.683636 
" style="fill:none;stroke:#00688b;stroke-width:10;"/>
    <path clip-path="url(#p70d0fbac55)" d="M 418.750498 174.683636 
L 423.12363 174.683636 
" style="fill:none;stroke:#00688b;stroke-width:10;"/>
    <path clip-path="url(#p70d0fbac55)" d="M 423.725093 174.683636 
L 425.090913 174.683636 
" style="fill:none;stroke:#00688b;stroke-width:10;"/>
    <path clip-path="url(#p70d0fbac55)" d="M 431.093006 174.683636 
L 432.571601 174.683636 
" style="fill:none;stroke:#00688b;stroke-width:10;"/>
    <path clip-path="url(#p70d0fbac55)" d="M 432.853536 174.683636 
L 435.021307 174.683636 
" style="fill:none;stroke:#00688b;stroke-width:10;"/>
    <path clip-path="url(#p70d0fbac55)" d="M 436.274353 174.683636 
L 440.334224 174.683636 
" style="fill:none;stroke:#00688b;stroke-width:10;"/>
    <path clip-path="url(#p70d0fbac55)" d="M 442.918005 174.683636 
L 453.644083 174.683636 
" style="fill:none;stroke:#00688b;stroke-width:10;"/>
    <path clip-path="url(#p70d0fbac55)" d="M 499.442932 174.683636 
L 500.633326 174.683636 
" style="fill:none;stroke:#00688b;stroke-width:10;"/>
    <path clip-path="url(#p70d0fbac55)" d="M 512.437023 174.683636 
L 516.484363 174.683636 
" style="fill:none;stroke:#00688b;stroke-width:10;"/>
    <path clip-path="url(#p70d0fbac55)" d="M 522.843574 174.683636 
L 525.800764 174.683636 
" style="fill:none;stroke:#00688b;stroke-width:10;"/>
    <path clip-path="url(#p70d0fbac55)" d="M 551.16869 174.683636 
L 553.61213 174.683636 
" style="fill:none;stroke:#00688b;stroke-width:10;"/>
    <path clip-path="url(#p70d0fbac55)" d="M 607.818921 174.683636 
L 621.652554 174.683636 
" style="fill:none;stroke:#00688b;stroke-width:10;"/>
    <path clip-path="url(#p70d0fbac55)" d="M 633.030215 174.683636 
L 636.714172 174.683636 
" style="fill:none;stroke:#00688b;stroke-width:10;"/>
    <path clip-path="url(#p70d0fbac55)" d="M 637.973484 174.683636 
L 643.724967 174.683636 
" style="fill:none;stroke:#00688b;stroke-width:10;"/>
    <path clip-path="url(#p70d0fbac55)" d="M 646.726013 174.683636 
L 649.996465 174.683636 
" style="fill:none;stroke:#00688b;stroke-width:10;"/>
    <path clip-path="url(#p70d0fbac55)" d="M 655.870746 174.683636 
L 658.508409 174.683636 
" style="fill:none;stroke:#00688b;stroke-width:10;"/>
    <path clip-path="url(#p70d0fbac55)" d="M 659.613596 174.683636 
L 660.653625 174.683636 
" style="fill:none;stroke:#00688b;stroke-width:10;"/>
    <path clip-path="url(#p70d0fbac55)" d="M 668.060383 174.683636 
L 669.125472 174.683636 
" style="fill:none;stroke:#00688b;stroke-width:10;"/>
    <path clip-path="url(#p70d0fbac55)" d="M 669.88983 174.683636 
L 671.476187 174.683636 
" style="fill:none;stroke:#00688b;stroke-width:10;"/>
    <path clip-path="url(#p70d0fbac55)" d="M 675.083708 174.683636 
L 677.552209 174.683636 
" style="fill:none;stroke:#00688b;stroke-width:10;"/>
    <path clip-path="url(#p70d0fbac55)" d="M 702.193368 174.683636 
L 704.774644 174.683636 
" style="fill:none;stroke:#00688b;stroke-width:10;"/>
    <path clip-path="url(#p70d0fbac55)" d="M 705.432493 174.683636 
L 706.923619 174.683636 
" style="fill:none;stroke:#00688b;stroke-width:10;"/>
    <path clip-path="url(#p70d0fbac55)" d="M 708.590171 174.683636 
L 710.532393 174.683636 
" style="fill:none;stroke:#00688b;stroke-width:10;"/>
    <path clip-path="url(#p70d0fbac55)" d="M 718.545625 174.683636 
L 719.147087 174.683636 
" style="fill:none;stroke:#00688b;stroke-width:10;"/>
    <path clip-path="url(#p70d0fbac55)" d="M 751.598484 174.683636 
L 753.841438 174.683636 
" style="fill:none;stroke:#00688b;stroke-width:10;"/>
    <path clip-path="url(#p70d0fbac55)" d="M 754.254943 174.683636 
L 755.169667 174.683636 
" style="fill:none;stroke:#00688b;stroke-width:10;"/>
    <path clip-path="url(#p70d0fbac55)" d="M 809.119583 174.683636 
L 810.222263 174.683636 
" style="fill:none;stroke:#00688b;stroke-width:10;"/>
    <path clip-path="url(#p70d0fbac55)" d="M 811.437718 174.683636 
L 814.470091 174.683636 
" style="fill:none;stroke:#00688b;stroke-width:10;"/>
    <path clip-path="url(#p70d0fbac55)" d="M 816.901001 174.683636 
L 819.006119 174.683636 
" style="fill:none;stroke:#00688b;stroke-width:10;"/>
    <path clip-path="url(#p70d0fbac55)" d="M 821.311725 174.683636 
L 823.542147 174.683636 
" style="fill:none;stroke:#00688b;stroke-width:10;"/>
    <path clip-path="url(#p70d0fbac55)" d="M 825.027007 174.683636 
L 825.540756 174.683636 
" style="fill:none;stroke:#00688b;stroke-width:10;"/>
    <path clip-path="url(#p70d0fbac55)" d="M 825.922936 174.683636 
L 827.764914 174.683636 
" style="fill:none;stroke:#00688b;stroke-width:10;"/>
    <path clip-path="url(#p70d0fbac55)" d="M 831.16067 174.683636 
L 833.065301 174.683636 
" style="fill:none;stroke:#00688b;stroke-width:10;"/>
    <path clip-path="url(#p70d0fbac55)" d="M 839.148841 174.683636 
L 842.614768 174.683636 
" style="fill:none;stroke:#00688b;stroke-width:10;"/>
   </g>
   <g id="LineCollection_4">
    <path clip-path="url(#p70d0fbac55)" d="M 324.937415 154.738182 
L 326.441071 154.738182 
" style="fill:none;stroke:#00688b;stroke-width:10;"/>
    <path clip-path="url(#p70d0fbac55)" d="M 335.531923 154.738182 
L 336.308812 154.738182 
" style="fill:none;stroke:#00688b;stroke-width:10;"/>
    <path clip-path="url(#p70d0fbac55)" d="M 362.102773 154.738182 
L 364.872006 154.738182 
" style="fill:none;stroke:#00688b;stroke-width:10;"/>
    <path clip-path="url(#p70d0fbac55)" d="M 366.257875 154.738182 
L 373.218549 154.738182 
" style="fill:none;stroke:#00688b;stroke-width:10;"/>
    <path clip-path="url(#p70d0fbac55)" d="M 377.78465 154.738182 
L 380.147896 154.738182 
" style="fill:none;stroke:#00688b;stroke-width:10;"/>
    <path clip-path="url(#p70d0fbac55)" d="M 397.480034 154.738182 
L 398.695489 154.738182 
" style="fill:none;stroke:#00688b;stroke-width:10;"/>
    <path clip-path="url(#p70d0fbac55)" d="M 440.891829 154.738182 
L 442.345363 154.738182 
" style="fill:none;stroke:#00688b;stroke-width:10;"/>
    <path clip-path="url(#p70d0fbac55)" d="M 629.885069 154.738182 
L 631.877413 154.738182 
" style="fill:none;stroke:#00688b;stroke-width:10;"/>
    <path clip-path="url(#p70d0fbac55)" d="M 644.577039 154.738182 
L 646.105755 154.738182 
" style="fill:none;stroke:#00688b;stroke-width:10;"/>
    <path clip-path="url(#p70d0fbac55)" d="M 649.645612 154.738182 
L 650.886128 154.738182 
" style="fill:none;stroke:#00688b;stroke-width:10;"/>
    <path clip-path="url(#p70d0fbac55)" d="M 651.951217 154.738182 
L 653.680421 154.738182 
" style="fill:none;stroke:#00688b;stroke-width:10;"/>
    <path clip-path="url(#p70d0fbac55)" d="M 654.150314 154.738182 
L 656.280493 154.738182 
" style="fill:none;stroke:#00688b;stroke-width:10;"/>
    <path clip-path="url(#p70d0fbac55)" d="M 660.80399 154.738182 
L 661.860309 154.738182 
" style="fill:none;stroke:#00688b;stroke-width:10;"/>
    <path clip-path="url(#p70d0fbac55)" d="M 711.071203 154.738182 
L 715.851575 154.738182 
" style="fill:none;stroke:#00688b;stroke-width:10;"/>
    <path clip-path="url(#p70d0fbac55)" d="M 761.434899 154.738182 
L 762.437336 154.738182 
" style="fill:none;stroke:#00688b;stroke-width:10;"/>
    <path clip-path="url(#p70d0fbac55)" d="M 769.617293 154.738182 
L 772.624604 154.738182 
" style="fill:none;stroke:#00688b;stroke-width:10;"/>
    <path clip-path="url(#p70d0fbac55)" d="M 775.418898 154.738182 
L 775.556733 154.738182 
" style="fill:none;stroke:#00688b;stroke-width:10;"/>
    <path clip-path="url(#p70d0fbac55)" d="M 777.323528 154.738182 
L 779.215629 154.738182 
" style="fill:none;stroke:#00688b;stroke-width:10;"/>
    <path clip-path="url(#p70d0fbac55)" d="M 786.971986 154.738182 
L 789.001921 154.738182 
" style="fill:none;stroke:#00688b;stroke-width:10;"/>
    <path clip-path="url(#p70d0fbac55)" d="M 797.209376 154.738182 
L 799.690408 154.738182 
" style="fill:none;stroke:#00688b;stroke-width:10;"/>
    <path clip-path="url(#p70d0fbac55)" d="M 804.934407 154.738182 
L 805.435626 154.738182 
" style="fill:none;stroke:#00688b;stroke-width:10;"/>
    <path clip-path="url(#p70d0fbac55)" d="M 807.509418 154.738182 
L 807.684844 154.738182 
" style="fill:none;stroke:#00688b;stroke-width:10;"/>
    <path clip-path="url(#p70d0fbac55)" d="M 814.664313 154.738182 
L 815.817116 154.738182 
" style="fill:none;stroke:#00688b;stroke-width:10;"/>
    <path clip-path="url(#p70d0fbac55)" d="M 820.478449 154.738182 
L 821.180155 154.738182 
" style="fill:none;stroke:#00688b;stroke-width:10;"/>
    <path clip-path="url(#p70d0fbac55)" d="M 823.560943 154.738182 
L 824.375423 154.738182 
" style="fill:none;stroke:#00688b;stroke-width:10;"/>
   </g>
   <g id="LineCollection_5">
    <path clip-path="url(#p70d0fbac55)" d="M 60.933055 134.792727 
L 64.089479 134.792727 
" style="fill:none;stroke:#cdad00;stroke-width:10;"/>
    <path clip-path="url(#p70d0fbac55)" d="M 78.015837 134.792727 
L 80.760009 134.792727 
" style="fill:none;stroke:#cdad00;stroke-width:10;"/>
    <path clip-path="url(#p70d0fbac55)" d="M 82.802475 134.792727 
L 83.504181 134.792727 
" style="fill:none;stroke:#cdad00;stroke-width:10;"/>
    <path clip-path="url(#p70d0fbac55)" d="M 95.668756 134.792727 
L 96.119853 134.792727 
" style="fill:none;stroke:#cdad00;stroke-width:10;"/>
    <path clip-path="url(#p70d0fbac55)" d="M 106.901065 134.792727 
L 110.760448 134.792727 
" style="fill:none;stroke:#cdad00;stroke-width:10;"/>
    <path clip-path="url(#p70d0fbac55)" d="M 122.495228 134.792727 
L 125.051443 134.792727 
" style="fill:none;stroke:#cdad00;stroke-width:10;"/>
    <path clip-path="url(#p70d0fbac55)" d="M 162.01882 134.792727 
L 162.758117 134.792727 
" style="fill:none;stroke:#cdad00;stroke-width:10;"/>
    <path clip-path="url(#p70d0fbac55)" d="M 165.387008 134.792727 
L 166.214019 134.792727 
" style="fill:none;stroke:#cdad00;stroke-width:10;"/>
    <path clip-path="url(#p70d0fbac55)" d="M 171.802606 134.792727 
L 172.965433 134.792727 
" style="fill:none;stroke:#cdad00;stroke-width:10;"/>
    <path clip-path="url(#p70d0fbac55)" d="M 175.735919 134.792727 
L 176.237138 134.792727 
" style="fill:none;stroke:#cdad00;stroke-width:10;"/>
    <path clip-path="url(#p70d0fbac55)" d="M 247.771055 134.792727 
L 248.973979 134.792727 
" style="fill:none;stroke:#cdad00;stroke-width:10;"/>
    <path clip-path="url(#p70d0fbac55)" d="M 261.572108 134.792727 
L 262.474302 134.792727 
" style="fill:none;stroke:#cdad00;stroke-width:10;"/>
    <path clip-path="url(#p70d0fbac55)" d="M 265.600653 134.792727 
L 268.382416 134.792727 
" style="fill:none;stroke:#cdad00;stroke-width:10;"/>
    <path clip-path="url(#p70d0fbac55)" d="M 289.778184 134.792727 
L 290.266872 134.792727 
" style="fill:none;stroke:#cdad00;stroke-width:10;"/>
    <path clip-path="url(#p70d0fbac55)" d="M 293.374428 134.792727 
L 297.870358 134.792727 
" style="fill:none;stroke:#cdad00;stroke-width:10;"/>
    <path clip-path="url(#p70d0fbac55)" d="M 304.768379 134.792727 
L 306.221913 134.792727 
" style="fill:none;stroke:#cdad00;stroke-width:10;"/>
    <path clip-path="url(#p70d0fbac55)" d="M 315.996929 134.792727 
L 316.58586 134.792727 
" style="fill:none;stroke:#cdad00;stroke-width:10;"/>
    <path clip-path="url(#p70d0fbac55)" d="M 318.290004 134.792727 
L 319.731007 134.792727 
" style="fill:none;stroke:#cdad00;stroke-width:10;"/>
    <path clip-path="url(#p70d0fbac55)" d="M 323.070376 134.792727 
L 324.486318 134.792727 
" style="fill:none;stroke:#cdad00;stroke-width:10;"/>
    <path clip-path="url(#p70d0fbac55)" d="M 331.785314 134.792727 
L 333.426805 134.792727 
" style="fill:none;stroke:#cdad00;stroke-width:10;"/>
    <path clip-path="url(#p70d0fbac55)" d="M 341.067882 134.792727 
L 342.521416 134.792727 
" style="fill:none;stroke:#cdad00;stroke-width:10;"/>
    <path clip-path="url(#p70d0fbac55)" d="M 376.9827 134.792727 
L 377.78465 134.792727 
" style="fill:none;stroke:#cdad00;stroke-width:10;"/>
    <path clip-path="url(#p70d0fbac55)" d="M 380.705501 134.792727 
L 381.996139 134.792727 
" style="fill:none;stroke:#cdad00;stroke-width:10;"/>
    <path clip-path="url(#p70d0fbac55)" d="M 400.825668 134.792727 
L 401.4146 134.792727 
" style="fill:none;stroke:#cdad00;stroke-width:10;"/>
    <path clip-path="url(#p70d0fbac55)" d="M 401.715331 134.792727 
L 402.254141 134.792727 
" style="fill:none;stroke:#cdad00;stroke-width:10;"/>
    <path clip-path="url(#p70d0fbac55)" d="M 410.079417 134.792727 
L 410.868836 134.792727 
" style="fill:none;stroke:#cdad00;stroke-width:10;"/>
    <path clip-path="url(#p70d0fbac55)" d="M 413.174441 134.792727 
L 413.963861 134.792727 
" style="fill:none;stroke:#cdad00;stroke-width:10;"/>
    <path clip-path="url(#p70d0fbac55)" d="M 426.832648 134.792727 
L 427.584476 134.792727 
" style="fill:none;stroke:#cdad00;stroke-width:10;"/>
    <path clip-path="url(#p70d0fbac55)" d="M 429.620676 134.792727 
L 431.024088 134.792727 
" style="fill:none;stroke:#cdad00;stroke-width:10;"/>
    <path clip-path="url(#p70d0fbac55)" d="M 457.910706 134.792727 
L 464.294978 134.792727 
" style="fill:none;stroke:#cdad00;stroke-width:10;"/>
    <path clip-path="url(#p70d0fbac55)" d="M 465.222232 134.792727 
L 468.041587 134.792727 
" style="fill:none;stroke:#cdad00;stroke-width:10;"/>
    <path clip-path="url(#p70d0fbac55)" d="M 470.798289 134.792727 
L 471.850848 134.792727 
" style="fill:none;stroke:#cdad00;stroke-width:10;"/>
    <path clip-path="url(#p70d0fbac55)" d="M 472.30821 134.792727 
L 473.12269 134.792727 
" style="fill:none;stroke:#cdad00;stroke-width:10;"/>
    <path clip-path="url(#p70d0fbac55)" d="M 478.184998 134.792727 
L 478.736339 134.792727 
" style="fill:none;stroke:#cdad00;stroke-width:10;"/>
    <path clip-path="url(#p70d0fbac55)" d="M 479.832754 134.792727 
L 480.7976 134.792727 
" style="fill:none;stroke:#cdad00;stroke-width:10;"/>
    <path clip-path="url(#p70d0fbac55)" d="M 488.591549 134.792727 
L 489.731821 134.792727 
" style="fill:none;stroke:#cdad00;stroke-width:10;"/>
    <path clip-path="url(#p70d0fbac55)" d="M 495.207634 134.792727 
L 496.748882 134.792727 
" style="fill:none;stroke:#cdad00;stroke-width:10;"/>
    <path clip-path="url(#p70d0fbac55)" d="M 501.660824 134.792727 
L 502.826157 134.792727 
" style="fill:none;stroke:#cdad00;stroke-width:10;"/>
    <path clip-path="url(#p70d0fbac55)" d="M 504.755849 134.792727 
L 505.908651 134.792727 
" style="fill:none;stroke:#cdad00;stroke-width:10;"/>
    <path clip-path="url(#p70d0fbac55)" d="M 511.503504 134.792727 
L 512.130027 134.792727 
" style="fill:none;stroke:#cdad00;stroke-width:10;"/>
    <path clip-path="url(#p70d0fbac55)" d="M 517.179804 134.792727 
L 520.099403 134.792727 
" style="fill:none;stroke:#cdad00;stroke-width:10;"/>
    <path clip-path="url(#p70d0fbac55)" d="M 543.713063 134.792727 
L 546.657722 134.792727 
" style="fill:none;stroke:#cdad00;stroke-width:10;"/>
    <path clip-path="url(#p70d0fbac55)" d="M 558.712029 134.792727 
L 562.370925 134.792727 
" style="fill:none;stroke:#cdad00;stroke-width:10;"/>
    <path clip-path="url(#p70d0fbac55)" d="M 565.497276 134.792727 
L 567.025993 134.792727 
" style="fill:none;stroke:#cdad00;stroke-width:10;"/>
    <path clip-path="url(#p70d0fbac55)" d="M 570.352831 134.792727 
L 572.858924 134.792727 
" style="fill:none;stroke:#cdad00;stroke-width:10;"/>
    <path clip-path="url(#p70d0fbac55)" d="M 575.866236 134.792727 
L 582.306894 134.792727 
" style="fill:none;stroke:#cdad00;stroke-width:10;"/>
    <path clip-path="url(#p70d0fbac55)" d="M 585.884342 134.792727 
L 588.089704 134.792727 
" style="fill:none;stroke:#cdad00;stroke-width:10;"/>
    <path clip-path="url(#p70d0fbac55)" d="M 592.819954 134.792727 
L 595.250864 134.792727 
" style="fill:none;stroke:#cdad00;stroke-width:10;"/>
    <path clip-path="url(#p70d0fbac55)" d="M 598.76566 134.792727 
L 601.309344 134.792727 
" style="fill:none;stroke:#cdad00;stroke-width:10;"/>
    <path clip-path="url(#p70d0fbac55)" d="M 603.213975 134.792727 
L 607.261315 134.792727 
" style="fill:none;stroke:#cdad00;stroke-width:10;"/>
    <path clip-path="url(#p70d0fbac55)" d="M 663.417845 134.792727 
L 668.016526 134.792727 
" style="fill:none;stroke:#cdad00;stroke-width:10;"/>
    <path clip-path="url(#p70d0fbac55)" d="M 669.60163 134.792727 
L 669.88983 134.792727 
" style="fill:none;stroke:#cdad00;stroke-width:10;"/>
    <path clip-path="url(#p70d0fbac55)" d="M 673.419662 134.792727 
L 674.455932 134.792727 
" style="fill:none;stroke:#cdad00;stroke-width:10;"/>
    <path clip-path="url(#p70d0fbac55)" d="M 678.491994 134.792727 
L 679.030804 134.792727 
" style="fill:none;stroke:#cdad00;stroke-width:10;"/>
    <path clip-path="url(#p70d0fbac55)" d="M 682.664639 134.792727 
L 683.667076 134.792727 
" style="fill:none;stroke:#cdad00;stroke-width:10;"/>
    <path clip-path="url(#p70d0fbac55)" d="M 686.611735 134.792727 
L 687.401155 134.792727 
" style="fill:none;stroke:#cdad00;stroke-width:10;"/>
    <path clip-path="url(#p70d0fbac55)" d="M 688.992524 134.792727 
L 689.769413 134.792727 
" style="fill:none;stroke:#cdad00;stroke-width:10;"/>
    <path clip-path="url(#p70d0fbac55)" d="M 691.235477 134.792727 
L 692.438402 134.792727 
" style="fill:none;stroke:#cdad00;stroke-width:10;"/>
    <path clip-path="url(#p70d0fbac55)" d="M 693.459634 134.792727 
L 694.010975 134.792727 
" style="fill:none;stroke:#cdad00;stroke-width:10;"/>
    <path clip-path="url(#p70d0fbac55)" d="M 697.2501 134.792727 
L 697.926745 134.792727 
" style="fill:none;stroke:#cdad00;stroke-width:10;"/>
    <path clip-path="url(#p70d0fbac55)" d="M 699.574501 134.792727 
L 700.915261 134.792727 
" style="fill:none;stroke:#cdad00;stroke-width:10;"/>
    <path clip-path="url(#p70d0fbac55)" d="M 724.461257 134.792727 
L 724.862232 134.792727 
" style="fill:none;stroke:#cdad00;stroke-width:10;"/>
    <path clip-path="url(#p70d0fbac55)" d="M 725.770691 134.792727 
L 726.146605 134.792727 
" style="fill:none;stroke:#cdad00;stroke-width:10;"/>
    <path clip-path="url(#p70d0fbac55)" d="M 728.871981 134.792727 
L 729.786705 134.792727 
" style="fill:none;stroke:#cdad00;stroke-width:10;"/>
    <path clip-path="url(#p70d0fbac55)" d="M 743.382259 134.792727 
L 746.677771 134.792727 
" style="fill:none;stroke:#cdad00;stroke-width:10;"/>
    <path clip-path="url(#p70d0fbac55)" d="M 758.239631 134.792727 
L 760.206914 134.792727 
" style="fill:none;stroke:#cdad00;stroke-width:10;"/>
    <path clip-path="url(#p70d0fbac55)" d="M 764.82439 134.792727 
L 767.430727 134.792727 
" style="fill:none;stroke:#cdad00;stroke-width:10;"/>
    <path clip-path="url(#p70d0fbac55)" d="M 773.796203 134.792727 
L 774.021751 134.792727 
" style="fill:none;stroke:#cdad00;stroke-width:10;"/>
    <path clip-path="url(#p70d0fbac55)" d="M 782.849463 134.792727 
L 783.175255 134.792727 
" style="fill:none;stroke:#cdad00;stroke-width:10;"/>
    <path clip-path="url(#p70d0fbac55)" d="M 784.259141 134.792727 
L 785.562309 134.792727 
" style="fill:none;stroke:#cdad00;stroke-width:10;"/>
    <path clip-path="url(#p70d0fbac55)" d="M 790.587025 134.792727 
L 791.576932 134.792727 
" style="fill:none;stroke:#cdad00;stroke-width:10;"/>
    <path clip-path="url(#p70d0fbac55)" d="M 795.173175 134.792727 
L 797.629146 134.792727 
" style="fill:none;stroke:#cdad00;stroke-width:10;"/>
    <path clip-path="url(#p70d0fbac55)" d="M 802.57868 134.792727 
L 804.834164 134.792727 
" style="fill:none;stroke:#cdad00;stroke-width:10;"/>
    <path clip-path="url(#p70d0fbac55)" d="M 808.455468 134.792727 
L 808.969217 134.792727 
" style="fill:none;stroke:#cdad00;stroke-width:10;"/>
    <path clip-path="url(#p70d0fbac55)" d="M 811.393862 134.792727 
L 811.857489 134.792727 
" style="fill:none;stroke:#cdad00;stroke-width:10;"/>
    <path clip-path="url(#p70d0fbac55)" d="M 826.204871 134.792727 
L 826.906577 134.792727 
" style="fill:none;stroke:#cdad00;stroke-width:10;"/>
    <path clip-path="url(#p70d0fbac55)" d="M 828.040584 134.792727 
L 828.855064 134.792727 
" style="fill:none;stroke:#cdad00;stroke-width:10;"/>
    <path clip-path="url(#p70d0fbac55)" d="M 830.020398 134.792727 
L 830.534147 134.792727 
" style="fill:none;stroke:#cdad00;stroke-width:10;"/>
   </g>
   <g id="LineCollection_6"/>
   <g id="LineCollection_7"/>
   <g id="LineCollection_8">
    <path clip-path="url(#p70d0fbac55)" d="M 59.58603 74.956364 
L 60.488223 74.956364 
" style="fill:none;stroke:#cdad00;stroke-width:10;"/>
    <path clip-path="url(#p70d0fbac55)" d="M 66.927629 74.956364 
L 67.579213 74.956364 
" style="fill:none;stroke:#cdad00;stroke-width:10;"/>
    <path clip-path="url(#p70d0fbac55)" d="M 84.97651 74.956364 
L 85.289772 74.956364 
" style="fill:none;stroke:#cdad00;stroke-width:10;"/>
    <path clip-path="url(#p70d0fbac55)" d="M 159.976354 74.956364 
L 162.419794 74.956364 
" style="fill:none;stroke:#cdad00;stroke-width:10;"/>
    <path clip-path="url(#p70d0fbac55)" d="M 178.725688 74.956364 
L 180.52381 74.956364 
" style="fill:none;stroke:#cdad00;stroke-width:10;"/>
    <path clip-path="url(#p70d0fbac55)" d="M 182.211663 74.956364 
L 183.226631 74.956364 
" style="fill:none;stroke:#cdad00;stroke-width:10;"/>
    <path clip-path="url(#p70d0fbac55)" d="M 373.960352 74.956364 
L 376.234631 74.956364 
" style="fill:none;stroke:#cdad00;stroke-width:10;"/>
    <path clip-path="url(#p70d0fbac55)" d="M 378.916151 74.956364 
L 380.611523 74.956364 
" style="fill:none;stroke:#cdad00;stroke-width:10;"/>
    <path clip-path="url(#p70d0fbac55)" d="M 482.213543 74.956364 
L 483.428998 74.956364 
" style="fill:none;stroke:#cdad00;stroke-width:10;"/>
    <path clip-path="url(#p70d0fbac55)" d="M 550.203844 74.956364 
L 551.619786 74.956364 
" style="fill:none;stroke:#cdad00;stroke-width:10;"/>
    <path clip-path="url(#p70d0fbac55)" d="M 672.806923 74.956364 
L 674.121368 74.956364 
" style="fill:none;stroke:#cdad00;stroke-width:10;"/>
    <path clip-path="url(#p70d0fbac55)" d="M 748.444566 74.956364 
L 751.281464 74.956364 
" style="fill:none;stroke:#cdad00;stroke-width:10;"/>
   </g>
   <g id="LineCollection_9">
    <path clip-path="url(#p70d0fbac55)" d="M 71.220566 55.010909 
L 72.44354 55.010909 
" style="fill:none;stroke:#cdad00;stroke-width:10;"/>
    <path clip-path="url(#p70d0fbac55)" d="M 83.974073 55.010909 
L 84.638188 55.010909 
" style="fill:none;stroke:#cdad00;stroke-width:10;"/>
    <path clip-path="url(#p70d0fbac55)" d="M 95.20137 55.010909 
L 95.376796 55.010909 
" style="fill:none;stroke:#cdad00;stroke-width:10;"/>
    <path clip-path="url(#p70d0fbac55)" d="M 97.503216 55.010909 
L 98.004435 55.010909 
" style="fill:none;stroke:#cdad00;stroke-width:10;"/>
    <path clip-path="url(#p70d0fbac55)" d="M 163.973572 55.010909 
L 165.536121 55.010909 
" style="fill:none;stroke:#cdad00;stroke-width:10;"/>
    <path clip-path="url(#p70d0fbac55)" d="M 167.086139 55.010909 
L 168.898045 55.010909 
" style="fill:none;stroke:#cdad00;stroke-width:10;"/>
    <path clip-path="url(#p70d0fbac55)" d="M 181.154092 55.010909 
L 182.498611 55.010909 
" style="fill:none;stroke:#cdad00;stroke-width:10;"/>
    <path clip-path="url(#p70d0fbac55)" d="M 249.13061 55.010909 
L 250.268376 55.010909 
" style="fill:none;stroke:#cdad00;stroke-width:10;"/>
    <path clip-path="url(#p70d0fbac55)" d="M 320.996584 55.010909 
L 321.472742 55.010909 
" style="fill:none;stroke:#cdad00;stroke-width:10;"/>
    <path clip-path="url(#p70d0fbac55)" d="M 453.97614 55.010909 
L 456.294276 55.010909 
" style="fill:none;stroke:#cdad00;stroke-width:10;"/>
    <path clip-path="url(#p70d0fbac55)" d="M 506.453727 55.010909 
L 507.468694 55.010909 
" style="fill:none;stroke:#cdad00;stroke-width:10;"/>
    <path clip-path="url(#p70d0fbac55)" d="M 545.868303 55.010909 
L 548.336805 55.010909 
" style="fill:none;stroke:#cdad00;stroke-width:10;"/>
    <path clip-path="url(#p70d0fbac55)" d="M 554.088288 55.010909 
L 557.333678 55.010909 
" style="fill:none;stroke:#cdad00;stroke-width:10;"/>
    <path clip-path="url(#p70d0fbac55)" d="M 715.062156 55.010909 
L 715.575905 55.010909 
" style="fill:none;stroke:#cdad00;stroke-width:10;"/>
   </g>
   <g id="LineCollection_10">
    <path clip-path="url(#p70d0fbac55)" d="M 338.173345 35.065455 
L 340.303524 35.065455 
" style="fill:none;stroke:#00688b;stroke-width:10;"/>
    <path clip-path="url(#p70d0fbac55)" d="M 381.294433 35.065455 
L 384.296732 35.065455 
" style="fill:none;stroke:#00688b;stroke-width:10;"/>
    <path clip-path="url(#p70d0fbac55)" d="M 719.992893 35.065455 
L 724.229443 35.065455 
" style="fill:none;stroke:#00688b;stroke-width:10;"/>
   </g>
   <g id="patch_3">
    <path d="M 57.62 234.52 
L 57.62 15.12 
" style="fill:none;stroke:#000000;stroke-linecap:square;stroke-linejoin:miter;stroke-width:0.8;"/>
   </g>
   <g id="patch_4">
    <path d="M 848.88 234.52 
L 848.88 15.12 
" style="fill:none;stroke:#000000;stroke-linecap:square;stroke-linejoin:miter;stroke-width:0.8;"/>
   </g>
   <g id="patch_5">
    <path d="M 57.62 234.52 
L 848.88 234.52 
" style="fill:none;stroke:#000000;stroke-linecap:square;stroke-linejoin:miter;stroke-width:0.8;"/>
   </g>
   <g id="patch_6">
    <path d="M 57.62 15.12 
L 848.88 15.12 
" style="fill:none;stroke:#000000;stroke-linecap:square;stroke-linejoin:miter;stroke-width:0.8;"/>
   </g>
  </g>
 </g>
 <defs>
  <clipPath id="p70d0fbac55">
   <rect height="219.4" width="791.26" x="57.62" y="15.12"/>
  </clipPath>
 </defs>
</svg>
